::::::::::: ::::    ::::      :::      :::::::: ::::::::::: ::::    ::: :::::::::: 
                      :+:     +:+:+: :+:+:+   :+: :+:   :+:    :+:    :+:     :+:+:   :+: :+:        
                      +:+     +:+ +:+:+ +:+  +:+   +:+  +:+           +:+     :+:+:+  +:+ +:+        
                      +#+     +#+  +:+  +#+ +#++:++#++: :#:           +#+     +#+ +:+ +#+ +#++:++#   
                      +#+     +#+       +#+ +#+     +#+ +#+   +#+#    +#+     +#+  +#+#+# +#+        
                      #+#     #+#       #+# #+#     #+# #+#    #+#    #+#     #+#   #+#+# #+#        
                  ########### ###       ### ###     ###  ######## ########### ###    #### ##########   
                                                



                           Another Fine Release Brought to you from - IMAGiNE                   
                                              http://imaginegroup.me/  
    
********************************************************************************************************************                                
                                                                        From Paris with Love R5 XVID  - IMAGiNE
********************************************************************************************************************

Ripper ...........: IMAGiNE                                     IMDB Rating.......:6.5/10                             
Video Codec.......:XVID                                         Release Date......:26/02/09
Audio Codec.......:MP3                                          Theatre Date......:05/02/09
Audio Bitrate.....:128                                          Runtime.......:1h 42mn
Subtitles.........:NIL                                                 Language..........:ENGLISH
Resolution........:720 x 304                        
IMDb URL..........:http://www.imdb.com/title/tt1179034/


[color=yellow]DETAILS:[/color]

Video
ID                               : 0
Format                           : MPEG-4 Visual
Format profile                   : Advanced Simple@L5
Format settings, BVOP            : Yes
Format settings, QPel            : No
Format settings, GMC             : No warppoints
Format settings, Matrix          : Default (MPEG)
Muxing mode                      : Packed bitstream
Codec ID                         : XVID
Codec ID/Hint                    : XviD
Duration                         : 1h 28mn
Bit rate                         : 2 048 Kbps
Width                            : 720 pixels
Height                           : 304 pixels
Display aspect ratio             : 2.35:1
Frame rate                       : 25.000 fps
Resolution                       : 8 bits
Colorimetry                      : 4:2:0
Scan type                        : Progressive
Bits/(Pixel*Frame)               : 0.374
Stream size                      : 1.27 GiB (94%)
Writing library                  : XviD 1.2.1 (UTC 2008-12-04)

Audio
ID                               : 1
Format                           : MPEG Audio
Format version                   : Version 1
Format profile                   : Layer 3
Mode                             : Joint stereo
Format_Settings_ModeExtension    : MS Stereo
Codec ID                         : 55
Codec ID/Hint                    : MP3
Duration                         : 1h 28mn
Bit rate mode                    : Constant
Bit rate                         : 128 Kbps
Channel(s)                       : 2 channels
Sampling rate                    : 44.1 KHz
Stream size                      : 81.1 MiB (6%)
Alignment                        : Split accross interleaves
Interleave, duration             : 40 ms (1.00 video frame)
Interleave, preload duration     : 500 ms



[color=yellow]NOTES:[/color]

IMAGiNE bringing you another release.....
This time its From Paris with Love
Sorry about the delay on this  one , real life gets in the way once in a while.
Here we took the R5 DVD and converted to xvid adjusting the colors and sharpened it a bit. 
For the audio , well been sitting on direct for this from opening day waiting for some good video to put it to . So here it is , new audio for all you that arent satisfied with the previous releases.


[color=yellow]SCREENS:[/color]



[color=yellow]GREETS:[/color]

FLAWL3SS,ViSiON,DEViSE,FUSiON,STG,SecretMyth,BirdFlu,ELEKTRI4KA
And to all the other p2p grps past and present 

Special thanks to Python-Lair for the server :)
And special thanks to supreme-speeds.com for the ripbox :)

[COLOR=RED]Looking for these,syncers,cammer,silver supplier.....Have anything to offer????......
Contact us imaginegroup@hushmail.com[/COLOR]


